<mxfile host="drawio-plugin" modified="2023-03-21T08:17:45.396Z" agent="5.0 (X11; Linux x86_64) AppleWebKit/537.36 (KHTML, like Gecko) Chrome/97.0.4692.45 Safari/537.36" etag="RYygRJRqPoVPv0bnUgj-" version="20.5.3" type="embed"><diagram name="Page-1" id="-E-ZyIsvf_o6zxuURSaw"><mxGraphModel dx="1271" dy="665" grid="0" gridSize="10" guides="1" tooltips="1" connect="1" arrows="1" fold="1" page="1" pageScale="1" pageWidth="1400" pageHeight="850" math="0" shadow="0"><root><mxCell id="0"/><mxCell id="1" parent="0"/><mxCell id="fiybinjcorVPDSeXrZhc-14" value="" style="rounded=1;whiteSpace=wrap;html=1;sketch=0;" parent="1" vertex="1"><mxGeometry x="720" y="160" width="620" height="280" as="geometry"/></mxCell><mxCell id="8B-w7mvv9o2OIYqW0WXh-8" style="edgeStyle=orthogonalEdgeStyle;rounded=0;orthogonalLoop=1;jettySize=auto;html=1;entryX=1;entryY=0.5;entryDx=0;entryDy=0;" parent="1" source="G5TcL7W7rNlP6_MCrIdF-5" target="fiybinjcorVPDSeXrZhc-14" edge="1"><mxGeometry relative="1" as="geometry"><Array as="points"><mxPoint x="1360" y="1360"/><mxPoint x="1360" y="300"/></Array></mxGeometry></mxCell><mxCell id="8B-w7mvv9o2OIYqW0WXh-9" style="edgeStyle=orthogonalEdgeStyle;rounded=0;orthogonalLoop=1;jettySize=auto;html=1;entryX=0;entryY=0.5;entryDx=0;entryDy=0;" parent="1" source="G5TcL7W7rNlP6_MCrIdF-5" target="G5TcL7W7rNlP6_MCrIdF-8" edge="1"><mxGeometry relative="1" as="geometry"><Array as="points"><mxPoint x="80" y="1360"/><mxPoint x="80" y="1040"/></Array></mxGeometry></mxCell><mxCell id="8B-w7mvv9o2OIYqW0WXh-10" style="edgeStyle=orthogonalEdgeStyle;rounded=0;orthogonalLoop=1;jettySize=auto;html=1;entryX=0;entryY=0.5;entryDx=0;entryDy=0;" parent="1" source="G5TcL7W7rNlP6_MCrIdF-5" target="G5TcL7W7rNlP6_MCrIdF-7" edge="1"><mxGeometry relative="1" as="geometry"><Array as="points"><mxPoint x="80" y="1360"/><mxPoint x="80" y="680"/></Array></mxGeometry></mxCell><mxCell id="8B-w7mvv9o2OIYqW0WXh-11" style="edgeStyle=orthogonalEdgeStyle;rounded=0;orthogonalLoop=1;jettySize=auto;html=1;entryX=0;entryY=0.5;entryDx=0;entryDy=0;" parent="1" source="G5TcL7W7rNlP6_MCrIdF-5" target="diqrvNJ3otsn1pAlMp7g-17" edge="1"><mxGeometry relative="1" as="geometry"><Array as="points"><mxPoint x="80" y="1360"/><mxPoint x="80" y="300"/></Array></mxGeometry></mxCell><mxCell id="G5TcL7W7rNlP6_MCrIdF-5" value="" style="rounded=1;whiteSpace=wrap;html=1;" parent="1" vertex="1"><mxGeometry x="100" y="1200" width="1240" height="320" as="geometry"/></mxCell><mxCell id="8B-w7mvv9o2OIYqW0WXh-16" style="edgeStyle=orthogonalEdgeStyle;rounded=0;orthogonalLoop=1;jettySize=auto;html=1;entryX=0.5;entryY=0;entryDx=0;entryDy=0;" parent="1" source="G5TcL7W7rNlP6_MCrIdF-7" target="G5TcL7W7rNlP6_MCrIdF-8" edge="1"><mxGeometry relative="1" as="geometry"/></mxCell><mxCell id="G5TcL7W7rNlP6_MCrIdF-7" value="" style="rounded=1;whiteSpace=wrap;html=1;" parent="1" vertex="1"><mxGeometry x="100" y="480" width="1240" height="400" as="geometry"/></mxCell><mxCell id="G5TcL7W7rNlP6_MCrIdF-8" value="" style="rounded=1;whiteSpace=wrap;html=1;" parent="1" vertex="1"><mxGeometry x="100" y="960" width="1240" height="160" as="geometry"/></mxCell><mxCell id="G5TcL7W7rNlP6_MCrIdF-9" value="Main&lt;br&gt;view model" style="rounded=0;whiteSpace=wrap;html=1;fillColor=#dae8fc;gradientColor=#7ea6e0;strokeColor=#6c8ebf;" parent="1" vertex="1"><mxGeometry x="140" y="1320" width="80" height="40" as="geometry"/></mxCell><mxCell id="9jZTcqss-zrhV2n4_d2R-40" style="edgeStyle=orthogonalEdgeStyle;rounded=0;orthogonalLoop=1;jettySize=auto;html=1;entryX=0;entryY=0.5;entryDx=0;entryDy=0;endArrow=oval;endFill=0;" parent="1" source="G5TcL7W7rNlP6_MCrIdF-10" target="G5TcL7W7rNlP6_MCrIdF-13" edge="1"><mxGeometry relative="1" as="geometry"/></mxCell><mxCell id="G5TcL7W7rNlP6_MCrIdF-10" value="Main&lt;br&gt;Activity" style="rounded=0;whiteSpace=wrap;html=1;" parent="1" vertex="1"><mxGeometry x="140" y="1360" width="80" height="120" as="geometry"/></mxCell><mxCell id="diqrvNJ3otsn1pAlMp7g-26" style="edgeStyle=orthogonalEdgeStyle;rounded=0;orthogonalLoop=1;jettySize=auto;html=1;exitX=0.75;exitY=0;exitDx=0;exitDy=0;entryX=1;entryY=1;entryDx=0;entryDy=0;fillColor=#f5f5f5;gradientColor=#b3b3b3;strokeColor=#666666;" parent="1" source="G5TcL7W7rNlP6_MCrIdF-12" target="G5TcL7W7rNlP6_MCrIdF-20" edge="1"><mxGeometry relative="1" as="geometry"><Array as="points"><mxPoint x="320" y="1280"/><mxPoint x="300" y="1280"/><mxPoint x="300" y="1160"/><mxPoint x="180" y="1160"/><mxPoint x="180" y="1100"/><mxPoint x="208" y="1100"/></Array></mxGeometry></mxCell><mxCell id="diqrvNJ3otsn1pAlMp7g-27" style="edgeStyle=orthogonalEdgeStyle;rounded=0;orthogonalLoop=1;jettySize=auto;html=1;exitX=0.25;exitY=0;exitDx=0;exitDy=0;entryX=0;entryY=1;entryDx=0;entryDy=0;fillColor=#f5f5f5;gradientColor=#b3b3b3;strokeColor=#666666;" parent="1" source="G5TcL7W7rNlP6_MCrIdF-12" target="G5TcL7W7rNlP6_MCrIdF-20" edge="1"><mxGeometry relative="1" as="geometry"><Array as="points"><mxPoint x="280" y="1280"/><mxPoint x="300" y="1280"/><mxPoint x="300" y="1160"/><mxPoint x="180" y="1160"/><mxPoint x="180" y="1100"/><mxPoint x="152" y="1100"/></Array></mxGeometry></mxCell><mxCell id="G5TcL7W7rNlP6_MCrIdF-12" value="Welcome&lt;br&gt;view model" style="rounded=0;whiteSpace=wrap;html=1;fillColor=#f5f5f5;gradientColor=#b3b3b3;strokeColor=#666666;" parent="1" vertex="1"><mxGeometry x="260" y="1320" width="80" height="40" as="geometry"/></mxCell><mxCell id="9jZTcqss-zrhV2n4_d2R-38" style="edgeStyle=orthogonalEdgeStyle;rounded=0;orthogonalLoop=1;jettySize=auto;html=1;entryX=0;entryY=0.5;entryDx=0;entryDy=0;endArrow=oval;endFill=0;" parent="1" source="G5TcL7W7rNlP6_MCrIdF-13" target="G5TcL7W7rNlP6_MCrIdF-15" edge="1"><mxGeometry relative="1" as="geometry"/></mxCell><mxCell id="G5TcL7W7rNlP6_MCrIdF-13" value="&lt;br&gt;&lt;br&gt;&lt;br&gt;&lt;br&gt;Welcome Fragment" style="rounded=0;whiteSpace=wrap;html=1;" parent="1" vertex="1"><mxGeometry x="260" y="1360" width="80" height="120" as="geometry"/></mxCell><mxCell id="9jZTcqss-zrhV2n4_d2R-31" style="edgeStyle=orthogonalEdgeStyle;rounded=0;orthogonalLoop=1;jettySize=auto;html=1;entryX=0.5;entryY=1;entryDx=0;entryDy=0;fillColor=#d5e8d4;gradientColor=#97d077;strokeColor=#82b366;" parent="1" source="G5TcL7W7rNlP6_MCrIdF-14" target="9jZTcqss-zrhV2n4_d2R-4" edge="1"><mxGeometry relative="1" as="geometry"><Array as="points"><mxPoint x="420" y="1160"/><mxPoint x="900" y="1160"/></Array></mxGeometry></mxCell><mxCell id="G5TcL7W7rNlP6_MCrIdF-14" value="Coins&lt;br&gt;view model" style="rounded=0;whiteSpace=wrap;html=1;fillColor=#d5e8d4;gradientColor=#97d077;strokeColor=#82b366;" parent="1" vertex="1"><mxGeometry x="380" y="1320" width="80" height="40" as="geometry"/></mxCell><mxCell id="9jZTcqss-zrhV2n4_d2R-41" style="edgeStyle=orthogonalEdgeStyle;rounded=0;orthogonalLoop=1;jettySize=auto;html=1;entryX=0;entryY=0.5;entryDx=0;entryDy=0;endArrow=oval;endFill=0;startArrow=oval;startFill=0;" parent="1" source="G5TcL7W7rNlP6_MCrIdF-15" target="G5TcL7W7rNlP6_MCrIdF-17" edge="1"><mxGeometry relative="1" as="geometry"/></mxCell><mxCell id="G5TcL7W7rNlP6_MCrIdF-15" value="Coins Fragment" style="rounded=0;whiteSpace=wrap;html=1;" parent="1" vertex="1"><mxGeometry x="380" y="1360" width="80" height="120" as="geometry"/></mxCell><mxCell id="G5TcL7W7rNlP6_MCrIdF-16" value="Coin Details&lt;br&gt;view model" style="rounded=0;whiteSpace=wrap;html=1;fillColor=#ffcd28;gradientColor=#ffa500;strokeColor=#d79b00;" parent="1" vertex="1"><mxGeometry x="500" y="1320" width="80" height="40" as="geometry"/></mxCell><mxCell id="G5TcL7W7rNlP6_MCrIdF-17" value="Coin Details&lt;br&gt;Fragment" style="rounded=0;whiteSpace=wrap;html=1;" parent="1" vertex="1"><mxGeometry x="500" y="1360" width="80" height="120" as="geometry"/></mxCell><mxCell id="G5TcL7W7rNlP6_MCrIdF-18" value="&lt;font style=&quot;font-size: 12px;&quot;&gt;Preference Repository&lt;/font&gt;" style="rounded=1;whiteSpace=wrap;html=1;fillColor=#cdeb8b;strokeColor=#36393d;" parent="1" vertex="1"><mxGeometry x="435" y="970" width="130" height="60" as="geometry"/></mxCell><mxCell id="diqrvNJ3otsn1pAlMp7g-2" style="edgeStyle=orthogonalEdgeStyle;rounded=0;orthogonalLoop=1;jettySize=auto;html=1;entryX=0.5;entryY=1;entryDx=0;entryDy=0;" parent="1" source="G5TcL7W7rNlP6_MCrIdF-20" target="G5TcL7W7rNlP6_MCrIdF-18" edge="1"><mxGeometry relative="1" as="geometry"><Array as="points"><mxPoint x="180" y="1050"/><mxPoint x="500" y="1050"/></Array></mxGeometry></mxCell><mxCell id="9Tw6lJnZpnQ8Tx6MwDwL-4" style="edgeStyle=orthogonalEdgeStyle;rounded=0;orthogonalLoop=1;jettySize=auto;html=1;entryX=0.5;entryY=1;entryDx=0;entryDy=0;" parent="1" source="G5TcL7W7rNlP6_MCrIdF-20" target="diqrvNJ3otsn1pAlMp7g-54" edge="1"><mxGeometry relative="1" as="geometry"><Array as="points"><mxPoint x="180" y="1050"/><mxPoint x="610" y="1050"/></Array></mxGeometry></mxCell><mxCell id="G5TcL7W7rNlP6_MCrIdF-20" value="GetWelcome" style="ellipse;whiteSpace=wrap;html=1;fontSize=11;fillColor=#ffff88;strokeColor=#36393d;" parent="1" vertex="1"><mxGeometry x="140" y="1060" width="80" height="30" as="geometry"/></mxCell><mxCell id="diqrvNJ3otsn1pAlMp7g-3" style="edgeStyle=orthogonalEdgeStyle;rounded=0;orthogonalLoop=1;jettySize=auto;html=1;" parent="1" source="G5TcL7W7rNlP6_MCrIdF-21" target="G5TcL7W7rNlP6_MCrIdF-18" edge="1"><mxGeometry relative="1" as="geometry"><Array as="points"><mxPoint x="270" y="1050"/><mxPoint x="500" y="1050"/></Array></mxGeometry></mxCell><mxCell id="9Tw6lJnZpnQ8Tx6MwDwL-5" style="edgeStyle=orthogonalEdgeStyle;rounded=0;orthogonalLoop=1;jettySize=auto;html=1;" parent="1" source="G5TcL7W7rNlP6_MCrIdF-21" target="diqrvNJ3otsn1pAlMp7g-54" edge="1"><mxGeometry relative="1" as="geometry"><Array as="points"><mxPoint x="270" y="1050"/><mxPoint x="610" y="1050"/></Array></mxGeometry></mxCell><mxCell id="G5TcL7W7rNlP6_MCrIdF-21" value="SaveWelcome" style="ellipse;whiteSpace=wrap;html=1;fontSize=11;fillColor=#ffff88;strokeColor=#36393d;" parent="1" vertex="1"><mxGeometry x="230" y="1060" width="80" height="30" as="geometry"/></mxCell><mxCell id="diqrvNJ3otsn1pAlMp7g-4" style="edgeStyle=orthogonalEdgeStyle;rounded=0;orthogonalLoop=1;jettySize=auto;html=1;" parent="1" source="G5TcL7W7rNlP6_MCrIdF-22" target="G5TcL7W7rNlP6_MCrIdF-18" edge="1"><mxGeometry relative="1" as="geometry"><Array as="points"><mxPoint x="360" y="1050"/><mxPoint x="500" y="1050"/></Array></mxGeometry></mxCell><mxCell id="9Tw6lJnZpnQ8Tx6MwDwL-6" style="edgeStyle=orthogonalEdgeStyle;rounded=0;orthogonalLoop=1;jettySize=auto;html=1;" parent="1" source="G5TcL7W7rNlP6_MCrIdF-22" target="diqrvNJ3otsn1pAlMp7g-54" edge="1"><mxGeometry relative="1" as="geometry"><Array as="points"><mxPoint x="360" y="1050"/><mxPoint x="610" y="1050"/></Array></mxGeometry></mxCell><mxCell id="G5TcL7W7rNlP6_MCrIdF-22" value="GetLanguage" style="ellipse;whiteSpace=wrap;html=1;fontSize=11;fillColor=#ffff88;strokeColor=#36393d;" parent="1" vertex="1"><mxGeometry x="320" y="1060" width="80" height="30" as="geometry"/></mxCell><mxCell id="diqrvNJ3otsn1pAlMp7g-5" style="edgeStyle=orthogonalEdgeStyle;rounded=0;orthogonalLoop=1;jettySize=auto;html=1;entryX=0.5;entryY=1;entryDx=0;entryDy=0;" parent="1" source="G5TcL7W7rNlP6_MCrIdF-23" target="G5TcL7W7rNlP6_MCrIdF-18" edge="1"><mxGeometry relative="1" as="geometry"><Array as="points"><mxPoint x="450" y="1050"/><mxPoint x="500" y="1050"/></Array></mxGeometry></mxCell><mxCell id="9Tw6lJnZpnQ8Tx6MwDwL-7" style="edgeStyle=orthogonalEdgeStyle;rounded=0;orthogonalLoop=1;jettySize=auto;html=1;entryX=0.5;entryY=1;entryDx=0;entryDy=0;" parent="1" source="G5TcL7W7rNlP6_MCrIdF-23" target="diqrvNJ3otsn1pAlMp7g-54" edge="1"><mxGeometry relative="1" as="geometry"><Array as="points"><mxPoint x="450" y="1050"/><mxPoint x="610" y="1050"/></Array></mxGeometry></mxCell><mxCell id="G5TcL7W7rNlP6_MCrIdF-23" value="SaveLanguage" style="ellipse;whiteSpace=wrap;html=1;fontSize=11;fillColor=#ffff88;strokeColor=#36393d;" parent="1" vertex="1"><mxGeometry x="410" y="1060" width="80" height="30" as="geometry"/></mxCell><mxCell id="diqrvNJ3otsn1pAlMp7g-6" style="edgeStyle=orthogonalEdgeStyle;rounded=0;orthogonalLoop=1;jettySize=auto;html=1;entryX=0.5;entryY=1;entryDx=0;entryDy=0;" parent="1" source="G5TcL7W7rNlP6_MCrIdF-24" target="G5TcL7W7rNlP6_MCrIdF-18" edge="1"><mxGeometry relative="1" as="geometry"><Array as="points"><mxPoint x="540" y="1050"/><mxPoint x="500" y="1050"/></Array></mxGeometry></mxCell><mxCell id="9Tw6lJnZpnQ8Tx6MwDwL-8" style="edgeStyle=orthogonalEdgeStyle;rounded=0;orthogonalLoop=1;jettySize=auto;html=1;" parent="1" source="G5TcL7W7rNlP6_MCrIdF-24" target="diqrvNJ3otsn1pAlMp7g-54" edge="1"><mxGeometry relative="1" as="geometry"><Array as="points"><mxPoint x="540" y="1050"/><mxPoint x="610" y="1050"/></Array></mxGeometry></mxCell><mxCell id="G5TcL7W7rNlP6_MCrIdF-24" value="GetTheme" style="ellipse;whiteSpace=wrap;html=1;fontSize=11;fillColor=#ffff88;strokeColor=#36393d;" parent="1" vertex="1"><mxGeometry x="500" y="1060" width="80" height="30" as="geometry"/></mxCell><mxCell id="diqrvNJ3otsn1pAlMp7g-7" style="edgeStyle=orthogonalEdgeStyle;rounded=0;orthogonalLoop=1;jettySize=auto;html=1;entryX=0.5;entryY=1;entryDx=0;entryDy=0;" parent="1" source="G5TcL7W7rNlP6_MCrIdF-25" target="G5TcL7W7rNlP6_MCrIdF-18" edge="1"><mxGeometry relative="1" as="geometry"><Array as="points"><mxPoint x="630" y="1050"/><mxPoint x="500" y="1050"/></Array></mxGeometry></mxCell><mxCell id="9Tw6lJnZpnQ8Tx6MwDwL-9" style="edgeStyle=orthogonalEdgeStyle;rounded=0;orthogonalLoop=1;jettySize=auto;html=1;" parent="1" source="G5TcL7W7rNlP6_MCrIdF-25" target="diqrvNJ3otsn1pAlMp7g-54" edge="1"><mxGeometry relative="1" as="geometry"><Array as="points"><mxPoint x="630" y="1050"/><mxPoint x="610" y="1050"/></Array></mxGeometry></mxCell><mxCell id="G5TcL7W7rNlP6_MCrIdF-25" value="SaveTheme" style="ellipse;whiteSpace=wrap;html=1;fontSize=11;fillColor=#ffff88;strokeColor=#36393d;" parent="1" vertex="1"><mxGeometry x="590" y="1060" width="80" height="30" as="geometry"/></mxCell><mxCell id="diqrvNJ3otsn1pAlMp7g-8" style="edgeStyle=orthogonalEdgeStyle;rounded=0;orthogonalLoop=1;jettySize=auto;html=1;entryX=0.5;entryY=1;entryDx=0;entryDy=0;" parent="1" source="G5TcL7W7rNlP6_MCrIdF-26" target="G5TcL7W7rNlP6_MCrIdF-18" edge="1"><mxGeometry relative="1" as="geometry"><Array as="points"><mxPoint x="720" y="1050"/><mxPoint x="500" y="1050"/></Array></mxGeometry></mxCell><mxCell id="G5TcL7W7rNlP6_MCrIdF-26" value="GetCurrency" style="ellipse;whiteSpace=wrap;html=1;fontSize=11;fillColor=#ffff88;strokeColor=#36393d;" parent="1" vertex="1"><mxGeometry x="680" y="1060" width="80" height="30" as="geometry"/></mxCell><mxCell id="diqrvNJ3otsn1pAlMp7g-9" style="edgeStyle=orthogonalEdgeStyle;rounded=0;orthogonalLoop=1;jettySize=auto;html=1;entryX=0.5;entryY=1;entryDx=0;entryDy=0;" parent="1" source="G5TcL7W7rNlP6_MCrIdF-27" target="G5TcL7W7rNlP6_MCrIdF-18" edge="1"><mxGeometry relative="1" as="geometry"><Array as="points"><mxPoint x="810" y="1050"/><mxPoint x="500" y="1050"/></Array></mxGeometry></mxCell><mxCell id="G5TcL7W7rNlP6_MCrIdF-27" value="SaveCurrency" style="ellipse;whiteSpace=wrap;html=1;fontSize=11;fillColor=#ffff88;strokeColor=#36393d;" parent="1" vertex="1"><mxGeometry x="770" y="1060" width="80" height="30" as="geometry"/></mxCell><mxCell id="G5TcL7W7rNlP6_MCrIdF-61" value="" style="edgeStyle=orthogonalEdgeStyle;rounded=0;orthogonalLoop=1;jettySize=auto;html=1;fontSize=12;" parent="1" edge="1"><mxGeometry relative="1" as="geometry"><mxPoint x="510" y="140" as="targetPoint"/></mxGeometry></mxCell><mxCell id="G5TcL7W7rNlP6_MCrIdF-68" value="" style="edgeStyle=orthogonalEdgeStyle;rounded=0;orthogonalLoop=1;jettySize=auto;html=1;fontSize=12;" parent="1" edge="1"><mxGeometry relative="1" as="geometry"><mxPoint x="370" y="70" as="targetPoint"/></mxGeometry></mxCell><mxCell id="G5TcL7W7rNlP6_MCrIdF-69" value="data" style="text;html=1;strokeColor=none;fillColor=none;align=center;verticalAlign=middle;whiteSpace=wrap;rounded=0;fontSize=12;" parent="1" vertex="1"><mxGeometry x="100" y="480" width="110" height="30" as="geometry"/></mxCell><mxCell id="G5TcL7W7rNlP6_MCrIdF-70" value="domain" style="text;html=1;strokeColor=none;fillColor=none;align=center;verticalAlign=middle;whiteSpace=wrap;rounded=0;fontSize=12;" parent="1" vertex="1"><mxGeometry x="100" y="960" width="60" height="30" as="geometry"/></mxCell><mxCell id="G5TcL7W7rNlP6_MCrIdF-71" value="app" style="text;html=1;strokeColor=none;fillColor=none;align=center;verticalAlign=middle;whiteSpace=wrap;rounded=0;fontSize=12;" parent="1" vertex="1"><mxGeometry x="100" y="1200" width="80" height="30" as="geometry"/></mxCell><mxCell id="G5TcL7W7rNlP6_MCrIdF-72" value="Walkthrough&lt;br&gt;Fragment" style="rounded=1;whiteSpace=wrap;html=1;fontSize=12;" parent="1" vertex="1"><mxGeometry x="260" y="1370" width="80" height="50" as="geometry"/></mxCell><mxCell id="diqrvNJ3otsn1pAlMp7g-10" value="" style="rounded=1;whiteSpace=wrap;html=1;fontSize=12;dashed=1;fillColor=#d5e8d4;strokeColor=#82b366;" parent="1" vertex="1"><mxGeometry x="490" y="495" width="360" height="260" as="geometry"/></mxCell><mxCell id="fiybinjcorVPDSeXrZhc-3" value="" style="rounded=1;whiteSpace=wrap;html=1;fontSize=12;dashed=1;fillColor=none;" parent="1" vertex="1"><mxGeometry x="675" y="565" width="170" height="180" as="geometry"/></mxCell><mxCell id="diqrvNJ3otsn1pAlMp7g-19" value="" style="rounded=1;whiteSpace=wrap;html=1;fontSize=12;dashed=1;fillColor=none;" parent="1" vertex="1"><mxGeometry x="495" y="565" width="170" height="180" as="geometry"/></mxCell><mxCell id="diqrvNJ3otsn1pAlMp7g-11" value="&lt;b&gt;repositoy&lt;/b&gt;" style="text;html=1;strokeColor=none;fillColor=none;align=center;verticalAlign=middle;whiteSpace=wrap;rounded=0;fontSize=12;rotation=0;" parent="1" vertex="1"><mxGeometry x="770" y="495" width="80" height="30" as="geometry"/></mxCell><mxCell id="diqrvNJ3otsn1pAlMp7g-12" value="PreferenceLocal" style="rounded=1;whiteSpace=wrap;html=1;fillColor=#cdeb8b;strokeColor=#36393d;" parent="1" vertex="1"><mxGeometry x="515" y="675" width="130" height="60" as="geometry"/></mxCell><mxCell id="8dqkjIhsqwQB_YQKlLrD-1" style="edgeStyle=orthogonalEdgeStyle;rounded=0;orthogonalLoop=1;jettySize=auto;html=1;entryX=0.242;entryY=0;entryDx=0;entryDy=0;entryPerimeter=0;" parent="1" source="diqrvNJ3otsn1pAlMp7g-17" target="G5TcL7W7rNlP6_MCrIdF-7" edge="1"><mxGeometry relative="1" as="geometry"/></mxCell><mxCell id="diqrvNJ3otsn1pAlMp7g-17" value="" style="rounded=1;whiteSpace=wrap;html=1;" parent="1" vertex="1"><mxGeometry x="100" y="160" width="600" height="280" as="geometry"/></mxCell><mxCell id="diqrvNJ3otsn1pAlMp7g-18" value="local" style="text;html=1;strokeColor=none;fillColor=none;align=center;verticalAlign=middle;whiteSpace=wrap;rounded=0;fontSize=12;" parent="1" vertex="1"><mxGeometry x="100" y="160" width="60" height="30" as="geometry"/></mxCell><mxCell id="diqrvNJ3otsn1pAlMp7g-20" value="&lt;b&gt;pref&lt;/b&gt;" style="text;html=1;strokeColor=none;fillColor=none;align=center;verticalAlign=middle;whiteSpace=wrap;rounded=0;fontSize=12;rotation=0;" parent="1" vertex="1"><mxGeometry x="610" y="565" width="60" height="30" as="geometry"/></mxCell><mxCell id="Bk7aKHN5v20y-Ur-kaEv-2" style="edgeStyle=orthogonalEdgeStyle;rounded=0;orthogonalLoop=1;jettySize=auto;html=1;endArrow=block;endFill=0;exitX=0.5;exitY=1;exitDx=0;exitDy=0;" parent="1" source="diqrvNJ3otsn1pAlMp7g-21" target="diqrvNJ3otsn1pAlMp7g-12" edge="1"><mxGeometry relative="1" as="geometry"><Array as="points"><mxPoint x="465" y="705"/></Array></mxGeometry></mxCell><mxCell id="diqrvNJ3otsn1pAlMp7g-21" value="PreferencesLocal&lt;br&gt;Impl" style="rounded=1;whiteSpace=wrap;html=1;fillColor=#dae8fc;strokeColor=#6c8ebf;" parent="1" vertex="1"><mxGeometry x="400" y="360" width="130" height="60" as="geometry"/></mxCell><mxCell id="fiybinjcorVPDSeXrZhc-8" style="edgeStyle=orthogonalEdgeStyle;rounded=0;orthogonalLoop=1;jettySize=auto;html=1;entryX=0.5;entryY=1;entryDx=0;entryDy=0;" parent="1" source="diqrvNJ3otsn1pAlMp7g-28" target="diqrvNJ3otsn1pAlMp7g-12" edge="1"><mxGeometry relative="1" as="geometry"/></mxCell><mxCell id="9jZTcqss-zrhV2n4_d2R-27" style="edgeStyle=orthogonalEdgeStyle;rounded=0;orthogonalLoop=1;jettySize=auto;html=1;endArrow=block;endFill=0;" parent="1" source="diqrvNJ3otsn1pAlMp7g-28" target="G5TcL7W7rNlP6_MCrIdF-18" edge="1"><mxGeometry relative="1" as="geometry"><Array as="points"><mxPoint x="580" y="918"/><mxPoint x="500" y="918"/></Array></mxGeometry></mxCell><mxCell id="diqrvNJ3otsn1pAlMp7g-28" value="PreferencesRepository&lt;br&gt;Impl" style="rounded=1;whiteSpace=wrap;html=1;fillColor=#cce5ff;strokeColor=#36393d;" parent="1" vertex="1"><mxGeometry x="515" y="805" width="130" height="60" as="geometry"/></mxCell><mxCell id="diqrvNJ3otsn1pAlMp7g-54" value="PrefKeys&amp;lt;T&amp;gt;" style="rounded=1;whiteSpace=wrap;html=1;fillColor=#f8cecc;strokeColor=#b85450;" parent="1" vertex="1"><mxGeometry x="570" y="985" width="80" height="30" as="geometry"/></mxCell><mxCell id="fiybinjcorVPDSeXrZhc-2" value="CoinRemote" style="rounded=1;whiteSpace=wrap;html=1;fillColor=#cdeb8b;strokeColor=#36393d;" parent="1" vertex="1"><mxGeometry x="695" y="675" width="130" height="60" as="geometry"/></mxCell><mxCell id="fiybinjcorVPDSeXrZhc-4" value="&lt;div&gt;&lt;b&gt;coin&lt;/b&gt;&lt;/div&gt;" style="text;html=1;strokeColor=none;fillColor=none;align=center;verticalAlign=middle;whiteSpace=wrap;rounded=0;fontSize=12;rotation=0;" parent="1" vertex="1"><mxGeometry x="790" y="565" width="60" height="30" as="geometry"/></mxCell><mxCell id="41" style="edgeStyle=orthogonalEdgeStyle;rounded=0;orthogonalLoop=1;jettySize=auto;html=1;endArrow=block;endFill=0;" edge="1" parent="1" source="fiybinjcorVPDSeXrZhc-9" target="9jZTcqss-zrhV2n4_d2R-1"><mxGeometry relative="1" as="geometry"/></mxCell><mxCell id="42" style="edgeStyle=orthogonalEdgeStyle;rounded=0;orthogonalLoop=1;jettySize=auto;html=1;entryX=0.5;entryY=1;entryDx=0;entryDy=0;endArrow=classic;endFill=1;" edge="1" parent="1" source="fiybinjcorVPDSeXrZhc-9" target="2"><mxGeometry relative="1" as="geometry"><Array as="points"><mxPoint x="1170" y="835"/></Array></mxGeometry></mxCell><mxCell id="fiybinjcorVPDSeXrZhc-9" value="CoinRepositoryImpl" style="rounded=1;whiteSpace=wrap;html=1;fillColor=#cce5ff;strokeColor=#36393d;" parent="1" vertex="1"><mxGeometry x="1015" y="805" width="130" height="60" as="geometry"/></mxCell><mxCell id="8B-w7mvv9o2OIYqW0WXh-17" style="edgeStyle=orthogonalEdgeStyle;rounded=0;orthogonalLoop=1;jettySize=auto;html=1;entryX=0.75;entryY=0;entryDx=0;entryDy=0;" parent="1" source="fiybinjcorVPDSeXrZhc-14" target="G5TcL7W7rNlP6_MCrIdF-7" edge="1"><mxGeometry relative="1" as="geometry"/></mxCell><mxCell id="8B-w7mvv9o2OIYqW0WXh-18" style="edgeStyle=orthogonalEdgeStyle;rounded=0;orthogonalLoop=1;jettySize=auto;html=1;entryX=1;entryY=0.5;entryDx=0;entryDy=0;exitX=1;exitY=0.75;exitDx=0;exitDy=0;" parent="1" source="fiybinjcorVPDSeXrZhc-14" target="G5TcL7W7rNlP6_MCrIdF-8" edge="1"><mxGeometry relative="1" as="geometry"><Array as="points"><mxPoint x="1380" y="370"/><mxPoint x="1380" y="1040"/></Array></mxGeometry></mxCell><mxCell id="fiybinjcorVPDSeXrZhc-15" value="remote" style="text;html=1;strokeColor=none;fillColor=none;align=center;verticalAlign=middle;whiteSpace=wrap;rounded=0;fontSize=12;" parent="1" vertex="1"><mxGeometry x="1280" y="160" width="60" height="30" as="geometry"/></mxCell><mxCell id="9jZTcqss-zrhV2n4_d2R-43" style="edgeStyle=orthogonalEdgeStyle;rounded=0;orthogonalLoop=1;jettySize=auto;html=1;endArrow=block;endFill=0;exitX=0.5;exitY=1;exitDx=0;exitDy=0;" parent="1" source="fiybinjcorVPDSeXrZhc-16" target="fiybinjcorVPDSeXrZhc-2" edge="1"><mxGeometry relative="1" as="geometry"><Array as="points"><mxPoint x="825" y="460"/><mxPoint x="670" y="460"/><mxPoint x="670" y="705"/></Array></mxGeometry></mxCell><mxCell id="31" style="edgeStyle=orthogonalEdgeStyle;rounded=0;orthogonalLoop=1;jettySize=auto;html=1;exitX=0.75;exitY=0;exitDx=0;exitDy=0;endArrow=classic;endFill=1;" edge="1" parent="1" source="fiybinjcorVPDSeXrZhc-16" target="30"><mxGeometry relative="1" as="geometry"><Array as="points"><mxPoint x="860" y="360"/></Array></mxGeometry></mxCell><mxCell id="32" style="edgeStyle=orthogonalEdgeStyle;rounded=0;orthogonalLoop=1;jettySize=auto;html=1;exitX=0.75;exitY=0;exitDx=0;exitDy=0;entryX=1;entryY=0.5;entryDx=0;entryDy=0;endArrow=classic;endFill=1;" edge="1" parent="1" source="fiybinjcorVPDSeXrZhc-16" target="29"><mxGeometry relative="1" as="geometry"><Array as="points"><mxPoint x="857" y="310"/></Array></mxGeometry></mxCell><mxCell id="fiybinjcorVPDSeXrZhc-16" value="CoinRemoteImpl" style="rounded=1;whiteSpace=wrap;html=1;fillColor=#dae8fc;strokeColor=#6c8ebf;" parent="1" vertex="1"><mxGeometry x="760" y="360" width="130" height="60" as="geometry"/></mxCell><mxCell id="L_DS6JSA2GLXRO1kF6Bz-3" value="CoinDTO" style="rounded=1;whiteSpace=wrap;html=1;fillColor=#e1d5e7;strokeColor=#9673a6;" parent="1" vertex="1"><mxGeometry x="820" y="170" width="80" height="40" as="geometry"/></mxCell><mxCell id="L_DS6JSA2GLXRO1kF6Bz-5" value="Response&amp;lt;T&amp;gt;" style="rounded=1;whiteSpace=wrap;html=1;fillColor=#e1d5e7;strokeColor=#9673a6;" parent="1" vertex="1"><mxGeometry x="730" y="170" width="80" height="40" as="geometry"/></mxCell><mxCell id="L_DS6JSA2GLXRO1kF6Bz-6" value="Coin" style="rounded=1;whiteSpace=wrap;html=1;fillColor=#e1d5e7;strokeColor=#9673a6;" parent="1" vertex="1"><mxGeometry x="1235" y="970" width="85" height="40" as="geometry"/></mxCell><mxCell id="9jZTcqss-zrhV2n4_d2R-1" value="&lt;font style=&quot;font-size: 12px;&quot;&gt;CoinRepository&lt;/font&gt;" style="rounded=1;whiteSpace=wrap;html=1;fillColor=#cdeb8b;strokeColor=#36393d;" parent="1" vertex="1"><mxGeometry x="1015" y="970" width="130" height="60" as="geometry"/></mxCell><mxCell id="9jZTcqss-zrhV2n4_d2R-2" style="edgeStyle=orthogonalEdgeStyle;rounded=0;orthogonalLoop=1;jettySize=auto;html=1;entryX=0.5;entryY=1;entryDx=0;entryDy=0;" parent="1" source="9jZTcqss-zrhV2n4_d2R-4" target="9jZTcqss-zrhV2n4_d2R-1" edge="1"><mxGeometry relative="1" as="geometry"><Array as="points"><mxPoint x="900" y="1050"/><mxPoint x="1080" y="1050"/></Array></mxGeometry></mxCell><mxCell id="9jZTcqss-zrhV2n4_d2R-4" value="GetCoins" style="ellipse;whiteSpace=wrap;html=1;fontSize=11;fillColor=#ffff88;strokeColor=#36393d;" parent="1" vertex="1"><mxGeometry x="860" y="1060" width="80" height="30" as="geometry"/></mxCell><mxCell id="9jZTcqss-zrhV2n4_d2R-5" style="edgeStyle=orthogonalEdgeStyle;rounded=0;orthogonalLoop=1;jettySize=auto;html=1;" parent="1" source="9jZTcqss-zrhV2n4_d2R-7" target="9jZTcqss-zrhV2n4_d2R-1" edge="1"><mxGeometry relative="1" as="geometry"><Array as="points"><mxPoint x="990" y="1050"/><mxPoint x="1080" y="1050"/></Array></mxGeometry></mxCell><mxCell id="9jZTcqss-zrhV2n4_d2R-7" value="GetCoin" style="ellipse;whiteSpace=wrap;html=1;fontSize=11;fillColor=#ffff88;strokeColor=#36393d;" parent="1" vertex="1"><mxGeometry x="950" y="1060" width="80" height="30" as="geometry"/></mxCell><mxCell id="9jZTcqss-zrhV2n4_d2R-11" style="edgeStyle=orthogonalEdgeStyle;rounded=0;orthogonalLoop=1;jettySize=auto;html=1;entryX=0.5;entryY=1;entryDx=0;entryDy=0;" parent="1" source="9jZTcqss-zrhV2n4_d2R-13" target="9jZTcqss-zrhV2n4_d2R-1" edge="1"><mxGeometry relative="1" as="geometry"><Array as="points"><mxPoint x="1080" y="1050"/><mxPoint x="1080" y="1050"/></Array></mxGeometry></mxCell><mxCell id="9jZTcqss-zrhV2n4_d2R-13" value="BookmarkCoin" style="ellipse;whiteSpace=wrap;html=1;fontSize=11;fillColor=#ffff88;strokeColor=#36393d;" parent="1" vertex="1"><mxGeometry x="1040" y="1060" width="80" height="30" as="geometry"/></mxCell><mxCell id="9jZTcqss-zrhV2n4_d2R-14" style="edgeStyle=orthogonalEdgeStyle;rounded=0;orthogonalLoop=1;jettySize=auto;html=1;entryX=0.5;entryY=1;entryDx=0;entryDy=0;" parent="1" source="9jZTcqss-zrhV2n4_d2R-16" target="9jZTcqss-zrhV2n4_d2R-1" edge="1"><mxGeometry relative="1" as="geometry"><Array as="points"><mxPoint x="1180" y="1050"/><mxPoint x="1080" y="1050"/></Array></mxGeometry></mxCell><mxCell id="9jZTcqss-zrhV2n4_d2R-16" value="UnBookmarkCoin" style="ellipse;whiteSpace=wrap;html=1;fontSize=11;fillColor=#ffff88;strokeColor=#36393d;" parent="1" vertex="1"><mxGeometry x="1130" y="1060" width="100" height="30" as="geometry"/></mxCell><mxCell id="9jZTcqss-zrhV2n4_d2R-35" value="&lt;font style=&quot;font-size: 10px;&quot;&gt;BaseAdapter&amp;lt;T, VH&amp;gt;&lt;br&gt;&lt;/font&gt;" style="rounded=1;whiteSpace=wrap;html=1;fillColor=#dae8fc;strokeColor=#6c8ebf;gradientColor=#7ea6e0;" parent="1" vertex="1"><mxGeometry x="1192.5" y="1400" width="120" height="40" as="geometry"/></mxCell><mxCell id="9jZTcqss-zrhV2n4_d2R-36" value="&lt;font style=&quot;font-size: 10px;&quot;&gt;BaseFragment&amp;lt;VB, VM&amp;gt;&lt;br&gt;&lt;/font&gt;" style="rounded=1;whiteSpace=wrap;html=1;fillColor=#dae8fc;strokeColor=#6c8ebf;gradientColor=#7ea6e0;" parent="1" vertex="1"><mxGeometry x="1192.5" y="1450" width="120" height="40" as="geometry"/></mxCell><mxCell id="Bk7aKHN5v20y-Ur-kaEv-1" value="CoinLocal" style="rounded=1;whiteSpace=wrap;html=1;fillColor=#cdeb8b;strokeColor=#36393d;" parent="1" vertex="1"><mxGeometry x="695" y="595" width="130" height="60" as="geometry"/></mxCell><mxCell id="Bk7aKHN5v20y-Ur-kaEv-4" style="edgeStyle=orthogonalEdgeStyle;rounded=0;orthogonalLoop=1;jettySize=auto;html=1;endArrow=block;endFill=0;entryX=0;entryY=0.5;entryDx=0;entryDy=0;" parent="1" source="Bk7aKHN5v20y-Ur-kaEv-3" target="Bk7aKHN5v20y-Ur-kaEv-1" edge="1"><mxGeometry relative="1" as="geometry"><Array as="points"><mxPoint x="615" y="460"/><mxPoint x="670" y="460"/><mxPoint x="670" y="625"/></Array></mxGeometry></mxCell><mxCell id="Bk7aKHN5v20y-Ur-kaEv-6" style="edgeStyle=orthogonalEdgeStyle;rounded=0;orthogonalLoop=1;jettySize=auto;html=1;" parent="1" source="Bk7aKHN5v20y-Ur-kaEv-3" target="Bk7aKHN5v20y-Ur-kaEv-5" edge="1"><mxGeometry relative="1" as="geometry"/></mxCell><mxCell id="Bk7aKHN5v20y-Ur-kaEv-15" style="edgeStyle=orthogonalEdgeStyle;rounded=0;orthogonalLoop=1;jettySize=auto;html=1;exitX=0.5;exitY=0;exitDx=0;exitDy=0;entryX=0.5;entryY=1;entryDx=0;entryDy=0;" parent="1" source="Bk7aKHN5v20y-Ur-kaEv-3" target="Bk7aKHN5v20y-Ur-kaEv-13" edge="1"><mxGeometry relative="1" as="geometry"><Array as="points"><mxPoint x="615" y="350"/><mxPoint x="500" y="350"/></Array></mxGeometry></mxCell><mxCell id="Bk7aKHN5v20y-Ur-kaEv-3" value="CoinLocalImpl" style="rounded=1;whiteSpace=wrap;html=1;fillColor=#dae8fc;strokeColor=#6c8ebf;" parent="1" vertex="1"><mxGeometry x="550" y="360" width="130" height="60" as="geometry"/></mxCell><mxCell id="Bk7aKHN5v20y-Ur-kaEv-9" style="edgeStyle=orthogonalEdgeStyle;rounded=0;orthogonalLoop=1;jettySize=auto;html=1;entryX=0;entryY=0.5;entryDx=0;entryDy=0;" parent="1" source="Bk7aKHN5v20y-Ur-kaEv-5" target="Bk7aKHN5v20y-Ur-kaEv-8" edge="1"><mxGeometry relative="1" as="geometry"><Array as="points"><mxPoint x="570" y="190"/></Array></mxGeometry></mxCell><mxCell id="Bk7aKHN5v20y-Ur-kaEv-10" style="edgeStyle=orthogonalEdgeStyle;rounded=0;orthogonalLoop=1;jettySize=auto;html=1;entryX=0;entryY=0.5;entryDx=0;entryDy=0;" parent="1" source="Bk7aKHN5v20y-Ur-kaEv-5" target="Bk7aKHN5v20y-Ur-kaEv-7" edge="1"><mxGeometry relative="1" as="geometry"><Array as="points"><mxPoint x="570" y="240"/></Array></mxGeometry></mxCell><mxCell id="Bk7aKHN5v20y-Ur-kaEv-5" value="CoinDatabase" style="rounded=1;whiteSpace=wrap;html=1;fillColor=#dae8fc;strokeColor=#6c8ebf;gradientColor=#7ea6e0;" parent="1" vertex="1"><mxGeometry x="550" y="270" width="130" height="60" as="geometry"/></mxCell><mxCell id="Bk7aKHN5v20y-Ur-kaEv-7" value="CoinDao" style="rounded=1;whiteSpace=wrap;html=1;fillColor=#cdeb8b;strokeColor=#36393d;" parent="1" vertex="1"><mxGeometry x="590" y="220" width="90" height="40" as="geometry"/></mxCell><mxCell id="Bk7aKHN5v20y-Ur-kaEv-8" value="BookmarkDao" style="rounded=1;whiteSpace=wrap;html=1;fillColor=#cdeb8b;strokeColor=#36393d;" parent="1" vertex="1"><mxGeometry x="590" y="170" width="90" height="40" as="geometry"/></mxCell><mxCell id="Bk7aKHN5v20y-Ur-kaEv-11" value="CoinEntity" style="rounded=1;whiteSpace=wrap;html=1;fillColor=#e1d5e7;strokeColor=#9673a6;" parent="1" vertex="1"><mxGeometry x="460" y="220" width="80" height="40" as="geometry"/></mxCell><mxCell id="Bk7aKHN5v20y-Ur-kaEv-12" value="BookmarkEntity" style="rounded=1;whiteSpace=wrap;html=1;fillColor=#e1d5e7;strokeColor=#9673a6;" parent="1" vertex="1"><mxGeometry x="460" y="170" width="80" height="40" as="geometry"/></mxCell><mxCell id="Bk7aKHN5v20y-Ur-kaEv-14" style="edgeStyle=orthogonalEdgeStyle;rounded=0;orthogonalLoop=1;jettySize=auto;html=1;" parent="1" source="Bk7aKHN5v20y-Ur-kaEv-13" target="Bk7aKHN5v20y-Ur-kaEv-11" edge="1"><mxGeometry relative="1" as="geometry"/></mxCell><mxCell id="Bk7aKHN5v20y-Ur-kaEv-13" value="CoinEntity&lt;br&gt;Mapper" style="rounded=1;whiteSpace=wrap;html=1;fillColor=#ffe6cc;strokeColor=#d79b00;" parent="1" vertex="1"><mxGeometry x="460" y="290" width="80" height="40" as="geometry"/></mxCell><mxCell id="9" style="edgeStyle=orthogonalEdgeStyle;rounded=0;orthogonalLoop=1;jettySize=auto;html=1;endArrow=classic;endFill=1;" edge="1" parent="1" source="2" target="8"><mxGeometry relative="1" as="geometry"/></mxCell><mxCell id="2" value="CoinSourceFactory" style="rounded=1;whiteSpace=wrap;html=1;fillColor=#cce5ff;strokeColor=#36393d;" vertex="1" parent="1"><mxGeometry x="1105" y="720" width="130" height="60" as="geometry"/></mxCell><mxCell id="6" style="edgeStyle=orthogonalEdgeStyle;rounded=0;orthogonalLoop=1;jettySize=auto;html=1;endArrow=classic;endFill=1;" edge="1" parent="1" source="4" target="fiybinjcorVPDSeXrZhc-2"><mxGeometry relative="1" as="geometry"/></mxCell><mxCell id="10" style="edgeStyle=orthogonalEdgeStyle;rounded=0;orthogonalLoop=1;jettySize=auto;html=1;entryX=0;entryY=0.5;entryDx=0;entryDy=0;endArrow=block;endFill=0;" edge="1" parent="1" source="4" target="8"><mxGeometry relative="1" as="geometry"/></mxCell><mxCell id="4" value="CoinRemoteSource" style="rounded=1;whiteSpace=wrap;html=1;fillColor=#cce5ff;strokeColor=#36393d;" vertex="1" parent="1"><mxGeometry x="860" y="675" width="130" height="60" as="geometry"/></mxCell><mxCell id="7" style="edgeStyle=orthogonalEdgeStyle;rounded=0;orthogonalLoop=1;jettySize=auto;html=1;endArrow=classic;endFill=1;" edge="1" parent="1" source="5" target="Bk7aKHN5v20y-Ur-kaEv-1"><mxGeometry relative="1" as="geometry"/></mxCell><mxCell id="11" style="edgeStyle=orthogonalEdgeStyle;rounded=0;orthogonalLoop=1;jettySize=auto;html=1;entryX=0;entryY=0.5;entryDx=0;entryDy=0;endArrow=block;endFill=0;" edge="1" parent="1" source="5" target="8"><mxGeometry relative="1" as="geometry"/></mxCell><mxCell id="5" value="CoinLocalSource" style="rounded=1;whiteSpace=wrap;html=1;fillColor=#cce5ff;strokeColor=#36393d;" vertex="1" parent="1"><mxGeometry x="860" y="595" width="130" height="60" as="geometry"/></mxCell><mxCell id="8" value="CoinSource" style="rounded=1;whiteSpace=wrap;html=1;fillColor=#cdeb8b;strokeColor=#36393d;" vertex="1" parent="1"><mxGeometry x="1105" y="630" width="130" height="60" as="geometry"/></mxCell><mxCell id="36" style="edgeStyle=orthogonalEdgeStyle;rounded=0;orthogonalLoop=1;jettySize=auto;html=1;endArrow=classic;endFill=1;" edge="1" parent="1" source="30" target="L_DS6JSA2GLXRO1kF6Bz-3"><mxGeometry relative="1" as="geometry"/></mxCell><mxCell id="30" value="CoinMapper" style="rounded=1;whiteSpace=wrap;html=1;fillColor=#ffe6cc;strokeColor=#d79b00;" vertex="1" parent="1"><mxGeometry x="820" y="230" width="80" height="40" as="geometry"/></mxCell><mxCell id="38" style="edgeStyle=orthogonalEdgeStyle;rounded=0;orthogonalLoop=1;jettySize=auto;html=1;endArrow=block;endFill=0;" edge="1" parent="1" source="26" target="29"><mxGeometry relative="1" as="geometry"/></mxCell><mxCell id="26" value="ServiceFactory" style="rounded=1;whiteSpace=wrap;html=1;fillColor=#dae8fc;strokeColor=#6c8ebf;" vertex="1" parent="1"><mxGeometry x="730" y="230" width="80" height="40" as="geometry"/></mxCell><mxCell id="29" value="CoinService" style="rounded=1;whiteSpace=wrap;html=1;fillColor=#cdeb8b;strokeColor=#36393d;" vertex="1" parent="1"><mxGeometry x="730" y="290" width="80" height="40" as="geometry"/></mxCell><mxCell id="40" style="edgeStyle=orthogonalEdgeStyle;rounded=0;orthogonalLoop=1;jettySize=auto;html=1;endArrow=block;endFill=0;" edge="1" parent="1" source="39" target="9jZTcqss-zrhV2n4_d2R-1"><mxGeometry relative="1" as="geometry"><Array as="points"><mxPoint x="1280" y="1050"/><mxPoint x="1080" y="1050"/></Array></mxGeometry></mxCell><mxCell id="39" value="GetBookmarkeds" style="ellipse;whiteSpace=wrap;html=1;fontSize=11;fillColor=#ffff88;strokeColor=#36393d;" vertex="1" parent="1"><mxGeometry x="1240" y="1060" width="80" height="30" as="geometry"/></mxCell></root></mxGraphModel></diagram></mxfile>